==================================================================================
Backstreet Boys  - Everybody (HARD SUB) HQ MUSIC VIDEO H264 AAC [JAGUAR7™]
==================================================================================


==================================================================================
INFO:
==================================================================================

Format                           : MPEG-4
Format profile                   : Base Media
Codec ID                         : isom
File size                        : 20.0 MiB
Duration                         : 5mn 11s
Overall bit rate                 : 539 Kbps

Video
ID                               : 1
Format                           : AVC
Format/Info                      : Advanced Video Codec
Format profile                   : Main@L3.0
Format settings, CABAC           : No
Format settings, ReFrames        : 3 frames
Codec ID                         : avc1
Codec ID/Info                    : Advanced Video Coding
Duration                         : 5mn 11s
Bit rate mode                    : Variable
Bit rate                         : 408 Kbps
Maximum bit rate                 : 1 129 Kbps
Width                            : 448 pixels
Height                           : 242 pixels
Display aspect ratio             : 1.851
Frame rate mode                  : Constant
Frame rate                       : 29.970 fps
Resolution                       : 24 bits
Colorimetry                      : 4:2:0
Scan type                        : Progressive
Bits/(Pixel*Frame)               : 0.126
Stream size                      : 15.1 MiB (75%)

Audio
ID                               : 2
Format                           : AAC
Format/Info                      : Advanced Audio Codec
Format version                   : Version 4
Format profile                   : LC
Format settings, SBR             : No
Codec ID                         : 40
Duration                         : 5mn 11s
Bit rate mode                    : Variable
Bit rate                         : 128 Kbps
Maximum bit rate                 : 133 Kbps
Channel(s)                       : 2 channels
Channel positions                : L R
Sampling rate                    : 48.0 KHz
Resolution                       : 16 bits
Stream size                      : 4.77 MiB (24%)

==================================================================================


Note: Lyrics And Screenshots Included.

        I Have Not Tested The File On PSP/iPod Or Any Other Handheld.
        But If It Works Please Comment.
         

================================================================================== 
==================================================================================

Artist/Band Info: Backstreet Boys are an American vocal group, formed in Orlando, Florida in 1993. 
The band originally consisted of A. J. McLean, Howie Dorough, Brian Littrell, 
Nick Carter and Kevin Richardson. 
In 2006 Richardson left the group to pursue other interests leaving the band as a four-piece,
but the remaining members did not rule out a possible return of the singer.

The band has released 7 studio albums to date and has sold over 130 million records worldwide,
making them one of the biggest selling groups of all time. According to the US Billboard 200, the 
Backstreet Boys are the first artist since Sade to have each of their albums reach top 10 on the chart.
[SOURCE : WIKIPEDIA]
==================================================================================

Seeding Will Be Slow,Be Patient. 
Comment About Quality And Compatibility. 
Request Seed For Previous Torrents On Latest Torrent.

SUPPORT THE ARTIST/BAND, BUY ORIGINAL CDs/DVDs. 

Support Me. Seed As Much As You Can.



==================================================================================
[JAGUAR7™] ACCOUNTS:
==================================================================================
 
http://thepiratebay.org/user/VIVALARAZA7



==================================================================================
SCREENSHOT LINKS:
==================================================================================
 
http://profile.imageshack.us/user/JAGUAR7
 
http://img705.imageshack.us/img705/2332/backstreetboyseverybody.jpg

==================================================================================